# xmcd
#
# Track frame offsets:
#       150
#       19255
#       52395
#
# Disc length: 910 seconds
#
# Revision: 0
# Processed by: cddbd v1.4PL0 Copyright (c) Steve Scherf et al.
# Submitted via: WhereIsIt 3.53
#
DISCID=26038c03
DTITLE=$texas
DYEAR=1997
DGENRE=
TTITLE0=Az út felett
TTITLE1=Az álom leterít
TTITLE2='62-es Fender Stratocaster
EXTD=
EXTT0=
EXTT1=
EXTT2=
PLAYORDER=
